<svg xmlns="http://www.w3.org/2000/svg" viewBox="0 0 32 32">
  <defs>
    <linearGradient id="fishGrad" x1="0%" y1="0%" x2="100%" y2="100%">
      <stop offset="0%" style="stop-color:#FF6B35"/>
      <stop offset="100%" style="stop-color:#FF5A5F"/>
    </linearGradient>
  </defs>
  <circle cx="16" cy="16" r="15" fill="url(#fishGrad)"/>
  <g fill="white">
    <path d="M22 16c0-3.3-2.7-6-6-6-.8 0-1.5.2-2.2.4C12.1 7.8 9 9.6 7 12.5c-.5.8-.5 1.8 0 2.5.5.8 1.4 1.2 2.3 1.2.5 0 1-.1 1.5-.4C10.5 17.4 10 20 10 22.5c0 1.4.3 2.8.8 4 .2.4.4.8.3 1.2-.1.5-.6.8-1.1.8-.6 0-1.2-.3-1.6-.7C6.6 25.8 5 22.9 5 19.5c0-3.6 1.5-7 4.2-9.5 1.5-1.4 3.4-2.4 5.5-3C16.8 5.5 19.5 5 22 5c4.4 0 8 3.6 8 8s-3.6 8-8 8c-1.1 0-2.2-.2-3.2-.7C18.5 20 18 19.3 18 18.5c0-.4.2-.8.5-1 .3-.2.7-.3 1.1-.3.8 0 1.4.6 1.4 1.4 0 .4-.2.8-.5 1.1-.3.3-.3.7-.2 1.1.2.4.5.6.9.7 1.2.3 2.5.4 3.8.4 3.3 0 6-2.7 6-6 0-3.1-2.4-5.7-5.5-6v-2c3.9.3 7 3.6 7 7.5 0 4.1-3.4 7.5-7.5 7.5-.7 0-1.4-.1-2.1-.3-.8-.2-1.5-.5-2.2-1-.7-.4-1.5-.6-2.4-.6-1.2 0-2.2.5-3 1.3-.7.8-1 1.8-1 2.9 0 .6.1 1.1.3 1.6.2.5.5.9.9 1.2.4.3.9.5 1.4.6 1 .2 2 .2 3 0 .6-.1 1.1-.4 1.6-.7.4-.3.7-.7.8-1.2.2-.5.2-1 0-1.5-.2-.5-.5-.9-1-1.1-.5-.3-.6-.8-.5-1.3.1-.5.5-.9 1-1.1.8-.3 1.3-1.1 1.3-2 0-.8-.4-1.5-1-1.9-.3-.2-.6-.3-1-.3z"/>
    <circle cx="20" cy="12" r="1.5"/>
  </g>
</svg>
